# xmcd
#
# Track frame offsets: 
#        180
#        13955
#        26497
#        40407
#        50402
#        65750
#        82332
#        96165
#        107332
#        119022
#        134056
#        146032
#        160480
#        175173
#        186741
#        200314
#        211604
#        224893
#
# Disc length: 3164 seconds
#
# Revision: 0
# Processed by: cddbd v1.5.2PL0 Copyright (c) Steve Scherf et al.
# Submitted via: ExactAudioCopyFreeDBPlugin 1.0
#
DISCID=230c5a12
DTITLE=Various Artist - The Voices Of The Great Divas [CD 7)
DYEAR=2005
DGENRE=Jazz
TTITLE0=Kay Starr - Wheel Of Fortune
TTITLE1=Edith Piaf - Y'en A Un De Trop
TTITLE2=Doris Day - Day By Day
TTITLE3=Rosemary Clooney - As Long As I Live
TTITLE4=Ella Fitzgerald - Benny's Coming Home On Saturday
TTITLE5=Billie Holiday - Stormy Weather
TTITLE6=Dinah Washington - My Devotion
TTITLE7=Billie Holiday - Having Myself A Time
TTITLE8=Ella Fitzgerald - Petootie Pie
TTITLE9=Peggy Lee - Not A Care In The World
TTITLE10=Anita O'Day - Just A Little Bit South Of North Carolina
TTITLE11=Billie Holiday - Eeny Meeny Mine
TTITLE12=Peggy Lee - Full Moon
TTITLE13=Teresa Brewer - Music Music Music
TTITLE14=Peggy Lee - Ain't Goin' No Place
TTITLE15=Ella Fitzgerald - Love That Boy
TTITLE16=Peggy Lee - Travellin' Light
TTITLE17=Ella Fitzgerald - Can't Help Lovin' Dat Man
EXTD=
EXTT0=
EXTT1=
EXTT2=
EXTT3=
EXTT4=
EXTT5=
EXTT6=
EXTT7=
EXTT8=
EXTT9=
EXTT10=
EXTT11=
EXTT12=
EXTT13=
EXTT14=
EXTT15=
EXTT16=
EXTT17=
PLAYORDER=
